<?xml version="1.0" encoding="UTF-8" standalone="no"?>
<svg
   width="520"
   height="424"
   viewBox="0 0 520 424"
   fill="none"
   version="1.1"
   id="svg1549"
   sodipodi:docname="hero-source.svg"
   inkscape:version="1.2.1 (9c6d41e410, 2022-07-14)"
   xmlns:inkscape="http://www.inkscape.org/namespaces/inkscape"
   xmlns:sodipodi="http://sodipodi.sourceforge.net/DTD/sodipodi-0.dtd"
   xmlns="http://www.w3.org/2000/svg"
   xmlns:svg="http://www.w3.org/2000/svg">
  <defs
     id="defs1553">
    <rect
       x="26.915905"
       y="44.112178"
       width="468.03768"
       height="351.40209"
       id="rect1861" />
  </defs>
  <sodipodi:namedview
     id="namedview1551"
     pagecolor="#ffffff"
     bordercolor="#000000"
     borderopacity="0.25"
     inkscape:showpageshadow="2"
     inkscape:pageopacity="0.0"
     inkscape:pagecheckerboard="0"
     inkscape:deskcolor="#d1d1d1"
     showgrid="false"
     inkscape:zoom="1.3374991"
     inkscape:cx="213.83191"
     inkscape:cy="150.28047"
     inkscape:window-width="1920"
     inkscape:window-height="974"
     inkscape:window-x="-11"
     inkscape:window-y="-11"
     inkscape:window-maximized="1"
     inkscape:current-layer="svg1549" />
  <path
     d="M48.1572 393.154C47.2258 393.01 46.3608 392.584 45.6792 391.933C44.9975 391.282 44.5321 390.438 44.3457 389.514C43.3473 384.124 54.1788 360.682 54.1788 360.682C54.1788 360.682 48.3835 354.606 51.4203 343.189C52.6657 338.509 62.0413 318.606 68.5309 311.852C72.8833 307.32 80.7508 302.913 87.2508 304.455C87.5108 304.514 85.6544 306.212 98.6622 290.841C112.962 273.941 148.015 245.185 177.588 231.712C208.621 217.573 260.941 205.972 307.328 214.201C369.156 225.186 409.31 260.907 435.097 288.337C445.414 288.194 454.298 296.335 461.097 304.091C471.825 316.311 481.621 330.72 482.297 346.967C482.778 351.648 481.58 356.348 478.917 360.227C481.998 367.647 484.625 375.247 486.782 382.985C486.982 383.758 487.025 384.564 486.906 385.354C486.788 386.144 486.511 386.902 486.093 387.583C485.676 388.264 485.125 388.853 484.474 389.316C483.823 389.779 483.085 390.106 482.305 390.278C449.069 397.644 276.988 431.241 48.1572 393.154Z"
     fill="white"
     id="path1489" />
  <text
     xml:space="preserve"
     id="text1859"
     style="font-size:192px;font-family:'MS Gothic';-inkscape-font-specification:'MS Gothic';text-align:center;white-space:pre;shape-inside:url(#rect1861);display:inline;fill:#000000;stroke:#3a3738;stroke-width:0;stroke-dashoffset:28.8404;stroke-opacity:0.255924"
     transform="matrix(1.3495467,0,0,1.3495467,-85.915396,-3.4142762)"><tspan
       x="85.830627"
       y="233.11133"
       id="tspan3173"><tspan
         style="font-weight:900;font-family:Overpass;-inkscape-font-specification:'Overpass Heavy';fill:#808080"
         id="tspan3171">53C</tspan></tspan></text>
</svg>
